# xmcd
#
# Track frame offsets:
#	150
#	10794
#	25278
#	37938
#	49814
#	62125
#	77179
#	90205
#	100923
#	113957
#	126135
#	140983
#	153927
#	164604
#	176167
#
# Disc length: 2571 seconds
# Revision: 1
# Processed by: cddbd v1.5.2PL0 Copyright (c) Steve Scherf et al.
# Submitted via: dBpowerAMP V12.0
#
DISCID=c40a090f
DTITLE=Kapa Ahonen Ja N‰‰svillen Veljekset - Matkan Varrelta
DYEAR=2007
DGENRE=Country
TTITLE0=Tiikerikakku
TTITLE1=Kaunis Suvip‰iv‰ Maalla
TTITLE2=En Selvi‰ P‰iv‰‰k‰‰n (Sua Ilman)
TTITLE3=Isken Buutsit Parkettiin
TTITLE4=Min‰ L‰hden Huitsin Nevadaan
TTITLE5=T‰hdet
TTITLE6=Takaisin (Rakkaansa Luo)
TTITLE7=Vanha Kantrilaulu
TTITLE8=Elvistell‰‰n
TTITLE9=Rakkauden Konkurssi
TTITLE10=Onko Musta Mihink‰‰n
TTITLE11=Vain Yhden Kerran El‰m‰ss‰
TTITLE12=Kapakkilaulu
TTITLE13=Uni On Kuoleman Veli
TTITLE14=Tomi (Omistettu Tommie Mansfieldille)
EXTD=
EXTT0=
EXTT1=
EXTT2=
EXTT3=
EXTT4=
EXTT5=
EXTT6=
EXTT7=
EXTT8=
EXTT9=
EXTT10=
EXTT11=
EXTT12=
EXTT13=
EXTT14=
PLAYORDER=
